# Wavefront OBJ file automatically generated by Tiled2Unity

# Vertices (Count = 228)
v -288 -288 0
v -304 -288 0
v -304 -272 0
v -288 -272 0
v -272 -288 0
v -272 -272 0
v -256 -288 0
v -256 -272 0
v -240 -288 0
v -240 -272 0
v -224 -288 0
v -224 -272 0
v -208 -288 0
v -208 -272 0
v -192 -288 0
v -192 -272 0
v -176 -288 0
v -176 -272 0
v -160 -288 0
v -160 -272 0
v -144 -288 0
v -144 -272 0
v -128 -288 0
v -128 -272 0
v -112 -288 0
v -112 -272 0
v -288 -304 0
v -304 -304 0
v -272 -304 0
v -256 -304 0
v -240 -304 0
v -224 -304 0
v -208 -304 0
v -192 -304 0
v -176 -304 0
v -160 -304 0
v -144 -304 0
v -128 -304 0
v -112 -304 0
v -288 -320 0
v -304 -320 0
v -272 -320 0
v -256 -320 0
v -240 -320 0
v -224 -320 0
v -208 -320 0
v -192 -320 0
v -176 -320 0
v -160 -320 0
v -144 -320 0
v -128 -320 0
v -112 -320 0
v -288 -336 0
v -304 -336 0
v -272 -336 0
v -256 -336 0
v -240 -336 0
v -224 -336 0
v -208 -336 0
v -192 -336 0
v -176 -336 0
v -160 -336 0
v -144 -336 0
v -128 -336 0
v -112 -336 0
v -288 -352 0
v -304 -352 0
v -272 -352 0
v -256 -352 0
v -240 -352 0
v -224 -352 0
v -208 -352 0
v -192 -352 0
v -176 -352 0
v -160 -352 0
v -144 -352 0
v -128 -352 0
v -112 -352 0
v -288 -368 0
v -304 -368 0
v -272 -368 0
v -256 -368 0
v -240 -368 0
v -224 -368 0
v -208 -368 0
v -192 -368 0
v -176 -368 0
v -160 -368 0
v -144 -368 0
v -128 -368 0
v -112 -368 0
v -288 -384 0
v -304 -384 0
v -272 -384 0
v -256 -384 0
v -240 -384 0
v -224 -384 0
v -208 -384 0
v -192 -384 0
v -176 -384 0
v -160 -384 0
v -144 -384 0
v -128 -384 0
v -112 -384 0
v -288 -400 0
v -304 -400 0
v -272 -400 0
v -256 -400 0
v -240 -400 0
v -224 -400 0
v -208 -400 0
v -192 -400 0
v -176 -400 0
v -160 -400 0
v -144 -400 0
v -128 -400 0
v -112 -400 0
v -288 -416 0
v -304 -416 0
v -272 -416 0
v -256 -416 0
v -240 -416 0
v -224 -416 0
v -208 -416 0
v -192 -416 0
v -176 -416 0
v -160 -416 0
v -144 -416 0
v -128 -416 0
v -112 -416 0
v -288 -432 0
v -304 -432 0
v -272 -432 0
v -256 -432 0
v -240 -432 0
v -224 -432 0
v -208 -432 0
v -192 -432 0
v -176 -432 0
v -160 -432 0
v -144 -432 0
v -128 -432 0
v -112 -432 0
v -288 -448 0
v -304 -448 0
v -272 -448 0
v -256 -448 0
v -240 -448 0
v -224 -448 0
v -208 -448 0
v -192 -448 0
v -176 -448 0
v -160 -448 0
v -144 -448 0
v -128 -448 0
v -112 -448 0
v -288 -464 0
v -304 -464 0
v -272 -464 0
v -256 -464 0
v -240 -464 0
v -224 -464 0
v -208 -464 0
v -192 -464 0
v -176 -464 0
v -160 -464 0
v -144 -464 0
v -128 -464 0
v -112 -464 0
v -288 -480 0
v -304 -480 0
v -272 -480 0
v -256 -480 0
v -240 -480 0
v -224 -480 0
v -208 -480 0
v -192 -480 0
v -176 -480 0
v -160 -480 0
v -144 -480 0
v -128 -480 0
v -112 -480 0
v -288 -496 0
v -304 -496 0
v -272 -496 0
v -256 -496 0
v -240 -496 0
v -224 -496 0
v -208 -496 0
v -192 -496 0
v -176 -496 0
v -160 -496 0
v -144 -496 0
v -128 -496 0
v -112 -496 0
v -288 -512 0
v -304 -512 0
v -272 -512 0
v -256 -512 0
v -240 -512 0
v -224 -512 0
v -208 -512 0
v -192 -512 0
v -176 -512 0
v -160 -512 0
v -144 -512 0
v -128 -512 0
v -112 -512 0
v -208 -528 0
v -224 -528 0
v -192 -528 0
v -176 -256 0
v -160 -256 0
v -288 -528 0
v -304 -528 0
v -272 -528 0
v -256 -528 0
v -240 -528 0
v -176 -528 0
v -160 -528 0
v -144 -528 0
v -128 -528 0
v -112 -528 0
v -224 -544 0
v -240 -544 0
v -208 -544 0
v -192 -544 0
v -176 -544 0

# Texture cooridinates (Count = 164)
vt 0.6673574 0.5817528
vt 0.6838823 0.5817528
vt 0.6838823 0.6121635
vt 0.6673574 0.6121635
vt 0.6146715 0.5817528
vt 0.6311963 0.5817528
vt 0.6311963 0.6121635
vt 0.6146715 0.6121635
vt 0.6497954 0.5817528
vt 0.6663203 0.5817528
vt 0.6663203 0.6121635
vt 0.6497954 0.6121635
vt 0.6322334 0.5494334
vt 0.6487583 0.5494334
vt 0.6487583 0.5798442
vt 0.6322334 0.5798442
vt 0.6146715 0.4201558
vt 0.6311963 0.4201558
vt 0.6311963 0.4505666
vt 0.6146715 0.4505666
vt 0.017564 0.1292813
vt 0.03408889 0.1292813
vt 0.03408889 0.1596921
vt 0.017564 0.1596921
vt 0.017564 0.03232312
vt 0.03408889 0.03232312
vt 0.03408889 0.06273395
vt 0.017564 0.06273395
vt 0.5971094 0.517114
vt 0.6136343 0.517114
vt 0.6136343 0.5475248
vt 0.5971094 0.5475248
vt 0.6322334 0.4201558
vt 0.6487583 0.4201558
vt 0.6487583 0.4505666
vt 0.6322334 0.4505666
vt 0.5971094 0.4201558
vt 0.6136343 0.4201558
vt 0.6136343 0.4505666
vt 0.5971094 0.4505666
vt 0.1580599 0.9695855
vt 0.1745848 0.9695855
vt 0.1745848 0.9999963
vt 0.1580599 0.9999963
vt 0.2107458 0.7433497
vt 0.2272707 0.7433497
vt 0.2272707 0.7737606
vt 0.2107458 0.7737606
vt 0.1931838 0.7433497
vt 0.2097087 0.7433497
vt 0.2097087 0.7737606
vt 0.1931838 0.7737606
vt 0.1756219 0.7433497
vt 0.1921467 0.7433497
vt 0.1921467 0.7737606
vt 0.1756219 0.7737606
vt 0.2107458 0.7110304
vt 0.2272707 0.7110304
vt 0.2272707 0.7414411
vt 0.2107458 0.7414411
vt 0.1931838 0.7110304
vt 0.2097087 0.7110304
vt 0.2097087 0.7414411
vt 0.1931838 0.7414411
vt 0.1756219 0.7110304
vt 0.1921467 0.7110304
vt 0.1921467 0.7414411
vt 0.1756219 0.7414411
vt 0.2107458 0.6787109
vt 0.2272707 0.6787109
vt 0.2272707 0.7091218
vt 0.2107458 0.7091218
vt 0.1931838 0.6787109
vt 0.2097087 0.6787109
vt 0.2097087 0.7091218
vt 0.1931838 0.7091218
vt 0.1756219 0.6787109
vt 0.1921467 0.6787109
vt 0.1921467 0.7091218
vt 0.1756219 0.7091218
vt 0.5444235 0.9372661
vt 0.5609484 0.9372661
vt 0.5609484 0.9676769
vt 0.5444235 0.9676769
vt 0.5268615 0.9372661
vt 0.5433864 0.9372661
vt 0.5433864 0.9676769
vt 0.5268615 0.9676769
vt 0.4917375 0.9049467
vt 0.5082625 0.9049467
vt 0.5082625 0.9353575
vt 0.4917375 0.9353575
vt 0.4566136 0.7110304
vt 0.4731385 0.7110304
vt 0.4731385 0.7414411
vt 0.4566136 0.7414411
vt 0.5444235 0.8403079
vt 0.5609484 0.8403079
vt 0.5609484 0.8707187
vt 0.5444235 0.8707187
vt 0.5444235 0.9049467
vt 0.5609484 0.9049467
vt 0.5609484 0.9353575
vt 0.5444235 0.9353575
vt 0.5268615 0.9049467
vt 0.5433864 0.9049467
vt 0.5433864 0.9353575
vt 0.5268615 0.9353575
vt 0.5444235 0.9695855
vt 0.5609484 0.9695855
vt 0.5609484 0.9999963
vt 0.5444235 0.9999963
vt 0.5092995 0.9695855
vt 0.5258244 0.9695855
vt 0.5258244 0.9999963
vt 0.5092995 0.9999963
vt 0.4917375 0.9695855
vt 0.5082625 0.9695855
vt 0.5082625 0.9999963
vt 0.4917375 0.9999963
vt 0.4741756 0.9049467
vt 0.4907005 0.9049467
vt 0.4907005 0.9353575
vt 0.4741756 0.9353575
vt 0.2283078 0.9695855
vt 0.2448327 0.9695855
vt 0.2448327 0.9999963
vt 0.2283078 0.9999963
vt 0.3336797 0.8403079
vt 0.3502046 0.8403079
vt 0.3502046 0.8707187
vt 0.3336797 0.8707187
vt 0.3863657 0.8403079
vt 0.4028905 0.8403079
vt 0.4028905 0.8707187
vt 0.3863657 0.8707187
vt 0.1931838 0.7756691
vt 0.2097087 0.7756691
vt 0.2097087 0.8060799
vt 0.1931838 0.8060799
vt 0.2107458 0.8403079
vt 0.2272707 0.8403079
vt 0.2272707 0.8707187
vt 0.2107458 0.8707187
vt 0.1756219 0.8403079
vt 0.1921467 0.8403079
vt 0.1921467 0.8707187
vt 0.1756219 0.8707187
vt 0.1756219 0.8079885
vt 0.1921467 0.8079885
vt 0.1921467 0.8383994
vt 0.1756219 0.8383994
vt 0.3688037 0.8403079
vt 0.3853286 0.8403079
vt 0.3853286 0.8707187
vt 0.3688037 0.8707187
vt 0.3512417 0.8403079
vt 0.3677666 0.8403079
vt 0.3677666 0.8707187
vt 0.3512417 0.8707187
vt 0.0001220703 0.0001220703
vt 0.9998779 0.0001220703
vt 0.9998779 0.9998779
vt 0.0001220703 0.9998779

# Normal
vn 0 0 -1

# Groups (Count = 4)

g mesh_0001
f 1/1/1 2/2/1 3/3/1 4/4/1
f 5/5/1 1/6/1 4/7/1 6/8/1
f 7/5/1 5/6/1 6/7/1 8/8/1
f 9/5/1 7/6/1 8/7/1 10/8/1
f 11/5/1 9/6/1 10/7/1 12/8/1
f 13/5/1 11/6/1 12/7/1 14/8/1
f 15/5/1 13/6/1 14/7/1 16/8/1
f 17/5/1 15/6/1 16/7/1 18/8/1
f 19/5/1 17/6/1 18/7/1 20/8/1
f 21/5/1 19/6/1 20/7/1 22/8/1
f 23/5/1 21/6/1 22/7/1 24/8/1
f 25/9/1 23/10/1 24/11/1 26/12/1
f 27/13/1 28/14/1 2/15/1 1/16/1
f 29/17/1 27/18/1 1/19/1 5/20/1
f 30/17/1 29/18/1 5/19/1 7/20/1
f 31/17/1 30/18/1 7/19/1 9/20/1
f 32/17/1 31/18/1 9/19/1 11/20/1
f 33/17/1 32/18/1 11/19/1 13/20/1
f 34/17/1 33/18/1 13/19/1 15/20/1
f 35/17/1 34/18/1 15/19/1 17/20/1
f 36/17/1 35/18/1 17/19/1 19/20/1
f 37/17/1 36/18/1 19/19/1 21/20/1
f 38/17/1 37/18/1 21/19/1 23/20/1
f 39/13/1 38/14/1 23/15/1 25/16/1
f 40/13/1 41/14/1 28/15/1 27/16/1
f 42/17/1 40/18/1 27/19/1 29/20/1
f 43/17/1 42/18/1 29/19/1 30/20/1
f 44/17/1 43/18/1 30/19/1 31/20/1
f 45/17/1 44/18/1 31/19/1 32/20/1
f 46/17/1 45/18/1 32/19/1 33/20/1
f 47/17/1 46/18/1 33/19/1 34/20/1
f 48/17/1 47/18/1 34/19/1 35/20/1
f 49/17/1 48/18/1 35/19/1 36/20/1
f 50/17/1 49/18/1 36/19/1 37/20/1
f 51/17/1 50/18/1 37/19/1 38/20/1
f 52/13/1 51/14/1 38/15/1 39/16/1
f 53/13/1 54/14/1 41/15/1 40/16/1
f 55/17/1 53/18/1 40/19/1 42/20/1
f 56/17/1 55/18/1 42/19/1 43/20/1
f 57/17/1 56/18/1 43/19/1 44/20/1
f 58/17/1 57/18/1 44/19/1 45/20/1
f 59/17/1 58/18/1 45/19/1 46/20/1
f 60/17/1 59/18/1 46/19/1 47/20/1
f 61/17/1 60/18/1 47/19/1 48/20/1
f 62/17/1 61/18/1 48/19/1 49/20/1
f 63/17/1 62/18/1 49/19/1 50/20/1
f 64/17/1 63/18/1 50/19/1 51/20/1
f 65/13/1 64/14/1 51/15/1 52/16/1
f 66/13/1 67/14/1 54/15/1 53/16/1
f 68/17/1 66/18/1 53/19/1 55/20/1
f 69/17/1 68/18/1 55/19/1 56/20/1
f 70/17/1 69/18/1 56/19/1 57/20/1
f 71/17/1 70/18/1 57/19/1 58/20/1
f 72/17/1 71/18/1 58/19/1 59/20/1
f 73/17/1 72/18/1 59/19/1 60/20/1
f 74/17/1 73/18/1 60/19/1 61/20/1
f 75/17/1 74/18/1 61/19/1 62/20/1
f 76/17/1 75/18/1 62/19/1 63/20/1
f 77/17/1 76/18/1 63/19/1 64/20/1
f 78/13/1 77/14/1 64/15/1 65/16/1
f 79/13/1 80/14/1 67/15/1 66/16/1
f 81/21/1 79/22/1 66/23/1 68/24/1
f 82/21/1 81/22/1 68/23/1 69/24/1
f 83/21/1 82/22/1 69/23/1 70/24/1
f 84/21/1 83/22/1 70/23/1 71/24/1
f 85/21/1 84/22/1 71/23/1 72/24/1
f 86/21/1 85/22/1 72/23/1 73/24/1
f 87/21/1 86/22/1 73/23/1 74/24/1
f 88/21/1 87/22/1 74/23/1 75/24/1
f 89/21/1 88/22/1 75/23/1 76/24/1
f 90/21/1 89/22/1 76/23/1 77/24/1
f 91/13/1 90/14/1 77/15/1 78/16/1
f 92/13/1 93/14/1 80/15/1 79/16/1
f 94/21/1 92/22/1 79/23/1 81/24/1
f 95/21/1 94/22/1 81/23/1 82/24/1
f 96/21/1 95/22/1 82/23/1 83/24/1
f 97/21/1 96/22/1 83/23/1 84/24/1
f 98/21/1 97/22/1 84/23/1 85/24/1
f 99/21/1 98/22/1 85/23/1 86/24/1
f 100/21/1 99/22/1 86/23/1 87/24/1
f 101/21/1 100/22/1 87/23/1 88/24/1
f 102/21/1 101/22/1 88/23/1 89/24/1
f 103/21/1 102/22/1 89/23/1 90/24/1
f 104/13/1 103/14/1 90/15/1 91/16/1
f 105/13/1 106/14/1 93/15/1 92/16/1
f 107/21/1 105/22/1 92/23/1 94/24/1
f 108/21/1 107/22/1 94/23/1 95/24/1
f 109/21/1 108/22/1 95/23/1 96/24/1
f 110/21/1 109/22/1 96/23/1 97/24/1
f 111/21/1 110/22/1 97/23/1 98/24/1
f 112/21/1 111/22/1 98/23/1 99/24/1
f 113/21/1 112/22/1 99/23/1 100/24/1
f 114/21/1 113/22/1 100/23/1 101/24/1
f 115/21/1 114/22/1 101/23/1 102/24/1
f 116/21/1 115/22/1 102/23/1 103/24/1
f 117/13/1 116/14/1 103/15/1 104/16/1
f 118/13/1 119/14/1 106/15/1 105/16/1
f 120/25/1 118/26/1 105/27/1 107/28/1
f 121/25/1 120/26/1 107/27/1 108/28/1
f 122/25/1 121/26/1 108/27/1 109/28/1
f 123/25/1 122/26/1 109/27/1 110/28/1
f 124/25/1 123/26/1 110/27/1 111/28/1
f 125/25/1 124/26/1 111/27/1 112/28/1
f 126/25/1 125/26/1 112/27/1 113/28/1
f 127/25/1 126/26/1 113/27/1 114/28/1
f 128/25/1 127/26/1 114/27/1 115/28/1
f 129/25/1 128/26/1 115/27/1 116/28/1
f 130/13/1 129/14/1 116/15/1 117/16/1
f 131/13/1 132/14/1 119/15/1 118/16/1
f 133/25/1 131/26/1 118/27/1 120/28/1
f 134/25/1 133/26/1 120/27/1 121/28/1
f 135/25/1 134/26/1 121/27/1 122/28/1
f 136/25/1 135/26/1 122/27/1 123/28/1
f 137/25/1 136/26/1 123/27/1 124/28/1
f 138/25/1 137/26/1 124/27/1 125/28/1
f 139/25/1 138/26/1 125/27/1 126/28/1
f 140/25/1 139/26/1 126/27/1 127/28/1
f 141/25/1 140/26/1 127/27/1 128/28/1
f 142/25/1 141/26/1 128/27/1 129/28/1
f 143/13/1 142/14/1 129/15/1 130/16/1
f 144/29/1 145/30/1 132/31/1 131/32/1
f 146/25/1 144/26/1 131/27/1 133/28/1
f 147/25/1 146/26/1 133/27/1 134/28/1
f 148/25/1 147/26/1 134/27/1 135/28/1
f 149/25/1 148/26/1 135/27/1 136/28/1
f 150/25/1 149/26/1 136/27/1 137/28/1
f 151/25/1 150/26/1 137/27/1 138/28/1
f 152/25/1 151/26/1 138/27/1 139/28/1
f 153/25/1 152/26/1 139/27/1 140/28/1
f 154/25/1 153/26/1 140/27/1 141/28/1
f 155/25/1 154/26/1 141/27/1 142/28/1
f 156/29/1 155/30/1 142/31/1 143/32/1
f 157/33/1 158/34/1 145/35/1 144/36/1
f 159/25/1 157/26/1 144/27/1 146/28/1
f 160/25/1 159/26/1 146/27/1 147/28/1
f 161/25/1 160/26/1 147/27/1 148/28/1
f 162/25/1 161/26/1 148/27/1 149/28/1
f 163/25/1 162/26/1 149/27/1 150/28/1
f 164/25/1 163/26/1 150/27/1 151/28/1
f 165/25/1 164/26/1 151/27/1 152/28/1
f 166/25/1 165/26/1 152/27/1 153/28/1
f 167/25/1 166/26/1 153/27/1 154/28/1
f 168/25/1 167/26/1 154/27/1 155/28/1
f 169/37/1 168/38/1 155/39/1 156/40/1
f 170/33/1 171/34/1 158/35/1 157/36/1
f 172/25/1 170/26/1 157/27/1 159/28/1
f 173/25/1 172/26/1 159/27/1 160/28/1
f 174/25/1 173/26/1 160/27/1 161/28/1
f 175/25/1 174/26/1 161/27/1 162/28/1
f 176/25/1 175/26/1 162/27/1 163/28/1
f 177/25/1 176/26/1 163/27/1 164/28/1
f 178/25/1 177/26/1 164/27/1 165/28/1
f 179/25/1 178/26/1 165/27/1 166/28/1
f 180/25/1 179/26/1 166/27/1 167/28/1
f 181/25/1 180/26/1 167/27/1 168/28/1
f 182/37/1 181/38/1 168/39/1 169/40/1
f 183/33/1 184/34/1 171/35/1 170/36/1
f 185/25/1 183/26/1 170/27/1 172/28/1
f 186/25/1 185/26/1 172/27/1 173/28/1
f 187/25/1 186/26/1 173/27/1 174/28/1
f 188/25/1 187/26/1 174/27/1 175/28/1
f 189/25/1 188/26/1 175/27/1 176/28/1
f 190/25/1 189/26/1 176/27/1 177/28/1
f 191/25/1 190/26/1 177/27/1 178/28/1
f 192/25/1 191/26/1 178/27/1 179/28/1
f 193/25/1 192/26/1 179/27/1 180/28/1
f 194/25/1 193/26/1 180/27/1 181/28/1
f 195/37/1 194/38/1 181/39/1 182/40/1
f 196/33/1 197/34/1 184/35/1 183/36/1
f 198/25/1 196/26/1 183/27/1 185/28/1
f 199/25/1 198/26/1 185/27/1 186/28/1
f 200/25/1 199/26/1 186/27/1 187/28/1
f 201/25/1 200/26/1 187/27/1 188/28/1
f 202/21/1 201/22/1 188/23/1 189/24/1
f 203/25/1 202/26/1 189/27/1 190/28/1
f 204/25/1 203/26/1 190/27/1 191/28/1
f 205/25/1 204/26/1 191/27/1 192/28/1
f 206/25/1 205/26/1 192/27/1 193/28/1
f 207/25/1 206/26/1 193/27/1 194/28/1
f 208/37/1 207/38/1 194/39/1 195/40/1
f 209/25/1 210/26/1 201/27/1 202/28/1
f 211/25/1 209/26/1 202/27/1 203/28/1

g mesh_0002
f 20/41/1 18/42/1 212/43/1 213/44/1
f 19/41/1 17/42/1 18/43/1 20/44/1
f 36/41/1 35/42/1 17/43/1 19/44/1
f 49/41/1 48/42/1 35/43/1 36/44/1
f 62/41/1 61/42/1 48/43/1 49/44/1
f 74/41/1 73/42/1 60/43/1 61/44/1
f 75/41/1 74/42/1 61/43/1 62/44/1
f 76/41/1 75/42/1 62/43/1 63/44/1
f 87/41/1 86/42/1 73/43/1 74/44/1
f 88/41/1 87/42/1 74/43/1 75/44/1
f 89/41/1 88/42/1 75/43/1 76/44/1
f 122/45/1 121/46/1 108/47/1 109/48/1
f 123/49/1 122/50/1 109/51/1 110/52/1
f 124/49/1 123/50/1 110/51/1 111/52/1
f 125/49/1 124/50/1 111/51/1 112/52/1
f 126/49/1 125/50/1 112/51/1 113/52/1
f 127/53/1 126/54/1 113/55/1 114/56/1
f 135/57/1 134/58/1 121/59/1 122/60/1
f 136/61/1 135/62/1 122/63/1 123/64/1
f 137/61/1 136/62/1 123/63/1 124/64/1
f 138/61/1 137/62/1 124/63/1 125/64/1
f 139/61/1 138/62/1 125/63/1 126/64/1
f 140/65/1 139/66/1 126/67/1 127/68/1
f 148/57/1 147/58/1 134/59/1 135/60/1
f 149/61/1 148/62/1 135/63/1 136/64/1
f 150/61/1 149/62/1 136/63/1 137/64/1
f 151/61/1 150/62/1 137/63/1 138/64/1
f 152/61/1 151/62/1 138/63/1 139/64/1
f 153/65/1 152/66/1 139/67/1 140/68/1
f 161/69/1 160/70/1 147/71/1 148/72/1
f 162/73/1 161/74/1 148/75/1 149/76/1
f 163/73/1 162/74/1 149/75/1 150/76/1
f 164/73/1 163/74/1 150/75/1 151/76/1
f 165/73/1 164/74/1 151/75/1 152/76/1
f 166/77/1 165/78/1 152/79/1 153/80/1

g mesh_0003
f 55/81/1 53/82/1 40/83/1 42/84/1
f 56/85/1 55/86/1 42/87/1 43/88/1
f 57/89/1 56/90/1 43/91/1 44/92/1
f 59/93/1 58/94/1 45/95/1 46/96/1
f 68/97/1 66/98/1 53/99/1 55/100/1
f 69/101/1 68/102/1 55/103/1 56/104/1
f 70/105/1 69/106/1 56/107/1 57/108/1
f 81/109/1 79/110/1 66/111/1 68/112/1
f 82/113/1 81/114/1 68/115/1 69/116/1
f 83/117/1 82/118/1 69/119/1 70/120/1
f 84/121/1 83/122/1 70/123/1 71/124/1
f 88/125/1 87/126/1 74/127/1 75/128/1
f 123/129/1 122/130/1 109/131/1 110/132/1
f 126/129/1 125/130/1 112/131/1 113/132/1
f 135/133/1 134/134/1 121/135/1 122/136/1
f 136/137/1 135/138/1 122/139/1 123/140/1
f 137/141/1 136/142/1 123/143/1 124/144/1
f 138/145/1 137/146/1 124/147/1 125/148/1
f 139/149/1 138/150/1 125/151/1 126/152/1
f 140/153/1 139/154/1 126/155/1 127/156/1
f 149/157/1 148/158/1 135/159/1 136/160/1
f 152/157/1 151/158/1 138/159/1 139/160/1

g mesh_0004
f 71/161/1 70/162/1 57/163/1 58/164/1
f 72/161/1 71/162/1 58/163/1 59/164/1
f 73/161/1 72/162/1 59/163/1 60/164/1
f 74/161/1 73/162/1 60/163/1 61/164/1
f 76/161/1 75/162/1 62/163/1 63/164/1
f 77/161/1 76/162/1 63/163/1 64/164/1
f 78/161/1 77/162/1 64/163/1 65/164/1
f 79/161/1 80/162/1 67/163/1 66/164/1
f 81/161/1 79/162/1 66/163/1 68/164/1
f 82/161/1 81/162/1 68/163/1 69/164/1
f 83/161/1 82/162/1 69/163/1 70/164/1
f 84/161/1 83/162/1 70/163/1 71/164/1
f 87/161/1 86/162/1 73/163/1 74/164/1
f 88/161/1 87/162/1 74/163/1 75/164/1
f 89/161/1 88/162/1 75/163/1 76/164/1
f 91/161/1 90/162/1 77/163/1 78/164/1
f 92/161/1 93/162/1 80/163/1 79/164/1
f 104/161/1 103/162/1 90/163/1 91/164/1
f 105/161/1 106/162/1 93/163/1 92/164/1
f 117/161/1 116/162/1 103/163/1 104/164/1
f 118/161/1 119/162/1 106/163/1 105/164/1
f 123/161/1 122/162/1 109/163/1 110/164/1
f 126/161/1 125/162/1 112/163/1 113/164/1
f 130/161/1 129/162/1 116/163/1 117/164/1
f 131/161/1 132/162/1 119/163/1 118/164/1
f 135/161/1 134/162/1 121/163/1 122/164/1
f 136/161/1 135/162/1 122/163/1 123/164/1
f 137/161/1 136/162/1 123/163/1 124/164/1
f 138/161/1 137/162/1 124/163/1 125/164/1
f 139/161/1 138/162/1 125/163/1 126/164/1
f 140/161/1 139/162/1 126/163/1 127/164/1
f 143/161/1 142/162/1 129/163/1 130/164/1
f 144/161/1 145/162/1 132/163/1 131/164/1
f 149/161/1 148/162/1 135/163/1 136/164/1
f 152/161/1 151/162/1 138/163/1 139/164/1
f 156/161/1 155/162/1 142/163/1 143/164/1
f 157/161/1 158/162/1 145/163/1 144/164/1
f 169/161/1 168/162/1 155/163/1 156/164/1
f 170/161/1 171/162/1 158/163/1 157/164/1
f 182/161/1 181/162/1 168/163/1 169/164/1
f 183/161/1 184/162/1 171/163/1 170/164/1
f 195/161/1 194/162/1 181/163/1 182/164/1
f 196/161/1 197/162/1 184/163/1 183/164/1
f 208/161/1 207/162/1 194/163/1 195/164/1
f 214/161/1 215/162/1 197/163/1 196/164/1
f 216/161/1 214/162/1 196/163/1 198/164/1
f 217/161/1 216/162/1 198/163/1 199/164/1
f 218/161/1 217/162/1 199/163/1 200/164/1
f 210/161/1 218/162/1 200/163/1 201/164/1
f 219/161/1 211/162/1 203/163/1 204/164/1
f 220/161/1 219/162/1 204/163/1 205/164/1
f 221/161/1 220/162/1 205/163/1 206/164/1
f 222/161/1 221/162/1 206/163/1 207/164/1
f 223/161/1 222/162/1 207/163/1 208/164/1
f 224/161/1 225/162/1 218/163/1 210/164/1
f 226/161/1 224/162/1 210/163/1 209/164/1
f 227/161/1 226/162/1 209/163/1 211/164/1
f 228/161/1 227/162/1 211/163/1 219/164/1

